<?xml version="1.0" encoding="utf-8"?><svg xmlns="http://www.w3.org/2000/svg" viewBox="0 0 512 512" width="512" height="512"><title>book</title><path d="M429.3 413.1h-95.2c-24.7 0-43.6 4.7-58.4 11.4v-99.8H330V179.5c1.4-.1 2.7-.1 4.1-.1h95.2v233.7zm-342.4 0V179.4h95.2c1.4 0 2.8.1 4.2.1v192.8c.1 14.4 3.5 28.6 10 41.4-4.5-.4-9.2-.6-14.1-.6H86.9zm134.5-40.7c.3-14.9 7.3-28.9 19.1-37.9V414l-5.2-5.2c-8-8-13.5-21.9-13.9-34.9v-1.5zm0-239c0-26.3 21.3-47.6 47.6-47.6h25.9v203.8H269c-17.1 0-33.8 5.4-47.6 15.5V133.4zm112.7 10.8c-1.4 0-2.8.1-4.1.1V50.6h-61c-45.7 0-82.7 37.1-82.7 82.7v11c-1.4 0-2.7-.1-4.2-.1H51.8v304.1h130.3c34.4 0 52.5 10.9 66.1 23l8.4 8.4.2-.2 1.4 1.4c15.2-15.2 32.6-32.6 76-32.6h130.3v-304l-130.4-.1z"/></svg>