<?xml version="1.0" encoding="utf-8"?><svg xmlns="http://www.w3.org/2000/svg" viewBox="0 0 512 512" width="512" height="512"><path d="M401.5 95h-19V37h-40v58h-170V37h-40v58h-23C73.4 95 44 124.4 44 160.5v246.1c0 36.1 29.4 65.5 65.5 65.5h292.1c36.1 0 65.5-29.4 65.5-65.5V160.5C467 124.4 437.6 95 401.5 95zm-292 40h292.1c14 0 25.5 11.4 25.5 25.5v37H84v-37c0-14.1 11.4-25.5 25.5-25.5zm292 297h-292c-14 0-25.5-11.4-25.5-25.5v-169h343v169c0 14.1-11.4 25.5-25.5 25.5z"/><path d="M122.5 276.5h40v40h-40zM197.7 277h40v40h-40zM272.8 277h40v40h-40zM348 277h40v40h-40zM122.5 353.5h40v40h-40zM197.7 354h40v40h-40zM272.8 354h40v40h-40z"/></svg>