<?xml version="1.0" encoding="utf-8"?><svg data-name="Layer 1" xmlns="http://www.w3.org/2000/svg" viewBox="0 0 512 512" width="512" height="512"><title>commenting-o</title><path d="M380.71 128.69a51.41 51.41 0 0 1 52 52v124.66c0 30.1-21.85 51.94-52 51.94h-20.76a92.07 92.07 0 0 0-52 15.89 92.07 92.07 0 0 0-52-15.89H131.29c-30.11 0-52-21.84-52-51.94v-124.7a51.41 51.41 0 0 1 52-52h249.42m0-31.18H131.29c-46.52 0-83.14 36.62-83.14 83.14v124.74c0 47.1 35.81 83.12 83.14 83.12H256a61.11 61.11 0 0 1 43.41 17.91l8.55 8.53 8.55-8.52a61.12 61.12 0 0 1 43.41-17.91h20.78c47.33 0 83.14-36 83.14-83.12V180.65c0-46.52-36.62-83.14-83.14-83.14z"/><path d="M135.45 185.84h241.1v31.18h-241.1zM135.45 268.97h241.1v31.18h-241.1z"/></svg>