<?xml version="1.0" encoding="utf-8"?><svg data-name="Layer 1" xmlns="http://www.w3.org/2000/svg" viewBox="0 0 512 512" width="512" height="512"><path d="M395.18 80.32L340 136v75h-29v-75l-54.06-55.53-55 55.48V211H173v-75l-54.14-55.53L63.85 136v295.68h32V149.13l22.8-23L141 149v62h-30v32h30v86.78h-30v32h30v69.89h32v-69.88h29v69.89h32v-69.89h45.12v69.89h32v-69.89h29v69.89h32v-69.89h28v-32H372V243h28v-32h-28v-61.87l22.65-22.85 21.48 22.64v282.76h32V136.16zm-161.24 68.81l22.8-23L279.06 149v62h-45.12zM173 329.79V243h29v86.78zm61 0V243h45.12v86.78zm106.08 0h-29V243h29z"/></svg>