<?xml version="1.0" encoding="utf-8"?><svg data-name="Layer 1" xmlns="http://www.w3.org/2000/svg" viewBox="0 0 512 512" width="512" height="512"><title>globe</title><path d="M259.3 41.76c-120.53 0-218.23 97.7-218.23 218.24s97.7 218.22 218.23 218.22S477.53 380.52 477.53 260 379.83 41.76 259.3 41.76zm16.37 145.59q32-.53 63.85-3.1a236.36 236.36 0 0 1 11.6 59.38h-75.45zm0-32.76V85.47a243.85 243.85 0 0 1 50.53 67q-25.2 1.7-50.53 2.11zm-32.74-69.12v69.11q-25.3-.43-50.53-2.17a243.86 243.86 0 0 1 50.53-66.94zm0 101.88v56.27h-75.45a236.44 236.44 0 0 1 11.6-59.38q31.86 2.59 63.85 3.11zm-108.24 56.27H74.63a184 184 0 0 1 20.58-69.87q25.17 4.24 50.6 7.19a269.4 269.4 0 0 0-11.12 62.68zm0 32.74A269.63 269.63 0 0 0 145.73 339q-25.4 2.93-50.52 7.18a184 184 0 0 1-20.58-69.87zm32.82 0h75.45v56.27q-32 .53-63.85 3.1a236.41 236.41 0 0 1-11.63-59.37zm75.45 89v69.12a243.83 243.83 0 0 1-50.53-67q25.19-1.68 50.5-2.09zm32.74 69.12v-69.09q25.31.43 50.53 2.17a243.85 243.85 0 0 1-50.56 66.95zm0-101.88v-56.24h75.45a236.42 236.42 0 0 1-11.6 59.38q-31.89-2.59-63.88-3.11zm108.25-56.27H444a184 184 0 0 1-20.58 69.87q-25.2-4.2-50.62-7.2a269.4 269.4 0 0 0 11.12-62.64zm0-32.74a269.45 269.45 0 0 0-11.16-62.67q25.46-2.94 50.66-7.2a184 184 0 0 1 20.55 69.9zm19.8-99.81q-21.25 3.25-42.68 5.52a272.26 272.26 0 0 0-41-64.41 186 186 0 0 1 83.63 58.92zM198.52 84.93a272.51 272.51 0 0 0-41 64.39q-21.37-2.28-42.57-5.51a186 186 0 0 1 83.57-58.88zM114.9 376.17q21.19-3.24 42.56-5.51A272.48 272.48 0 0 0 198.28 435a186 186 0 0 1-83.38-58.83zM320.1 435a272.48 272.48 0 0 0 41-64.38q21.37 2.28 42.56 5.51A186.06 186.06 0 0 1 320.1 435z"/></svg>