<?xml version="1.0" encoding="utf-8"?><svg data-name="Layer 1" xmlns="http://www.w3.org/2000/svg" viewBox="0 0 512 512" width="512" height="512"><title>lips</title><path d="M389.47 201c-18-18-39-32.61-67.44-32.61-37.7 0-45.26 14.17-66 14.17s-28.36-14.17-61.42-14.17S140.52 183 122.5 201c-19.06 19-74.34 76-74.34 76C85.93 329 152.06 385.65 256 385.65S426 329 463.84 277c0 0-55.3-57-74.37-76zm-246.86 20c14.8-14.8 28.34-24.31 52-24.31 28.25 0 33 14.17 61.41 14.17s33.16-14 61.41-14.17c23.62-.11 37.16 9.51 52 24.31 14.33 14.33 14.18 14 45.38 43.35-19.22-.24-31.7-4.39-43.84-8.43-10.71-3.57-21.79-7.27-35.56-7.27-24.07 0-37.77 7.82-48.79 14.1-9.34 5.33-16.72 9.53-30.57 9.53-13.65 0-21-4.19-30.38-9.5-11.08-6.29-24.88-14.13-49-14.13-13.74 0-24.79 3.68-35.48 7.23-12.12 4-24.6 8.17-43.81 8.37C128.43 235 128.3 235.32 142.61 221zM256 357.31c-60.45 0-112.24-23.1-154.78-64.8 21.7-.72 36.49-5.6 48.86-9.72 9.71-3.23 17.38-5.78 26.53-5.78 16.62 0 25.13 4.83 35 10.43 10.89 6.19 23.24 13.2 44.37 13.2 21.37 0 33.72-7 44.61-13.25 9.76-5.57 18.19-10.37 34.75-10.37 9.17 0 16.86 2.56 26.59 5.81 12.36 4.12 27.12 9 48.76 9.78-42.59 41.61-94.3 64.7-154.69 64.7z"/></svg>