<svg id="7e244f45-4e58-4709-95fd-2c294e10efca" data-name="Layer 1" xmlns="http://www.w3.org/2000/svg" viewBox="0 0 512 512">
  <title>map-marker</title>
  <g>
    <path d="M256,155a68.59,68.59,0,1,0,68.59,68.59A68.59,68.59,0,0,0,256,155Zm0,102.88a34.3,34.3,0,1,1,34.29-34.29A34.33,34.33,0,0,1,256,257.91Z"/>
    <path d="M378.45,102.37a174.39,174.39,0,0,0-244.9,0c-67.63,67-63.05,171.28,0,242.49C198.28,418,232.9,463.59,256,509.4c23.22-45.81,57.72-91.43,122.45-164.54C441.5,273.65,446.08,169.33,378.45,102.37ZM352.77,322.13C308.4,372.26,278.28,409.42,256,442.28c-22.2-32.76-52.35-69.95-96.79-120.15-25.57-28.88-39.92-64.59-40.39-100.56-.48-36.4,12.95-69.19,38.84-94.83a140.09,140.09,0,0,1,196.64,0c25.89,25.64,39.32,58.43,38.84,94.83C392.69,257.54,378.34,293.25,352.77,322.13Z"/>
  </g>
</svg>
