<?xml version="1.0" encoding="utf-8"?><svg data-name="Layer 1" xmlns="http://www.w3.org/2000/svg" viewBox="0 0 512 512" width="512" height="512"><title>smile-o</title><circle cx="195.71" cy="215.81" r="28.87"/><circle cx="345.82" cy="215.81" r="28.87"/><path d="M270.76 83c95.5 0 173.2 77.7 173.2 173.2s-77.7 173.2-173.2 173.2-173.2-77.7-173.2-173.2S175.26 83 270.76 83m0-34.64C156 48.38 62.92 141.43 62.92 256.22S156 464.06 270.76 464.06 478.61 371 478.61 256.22 385.55 48.38 270.76 48.38z"/><path d="M270.76 382.66A125.64 125.64 0 0 1 157 311.53l31.14-15.17a91.84 91.84 0 0 0 165.16 0l31.14 15.17a125.64 125.64 0 0 1-113.68 71.13z"/></svg>