<?xml version="1.0" encoding="utf-8"?><svg data-name="Layer 1" xmlns="http://www.w3.org/2000/svg" viewBox="0 0 512 512" width="512" height="512"><path d="M382.54 234.92h-36c0 16.56-18.14 29.53-41.3 29.53s-41.3-13-41.3-29.53h-36c0 18.6 8.45 35.61 23.79 47.91 14.18 11.36 33.18 17.62 53.51 17.62s39.34-6.26 53.51-17.62c15.34-12.3 23.79-29.31 23.79-47.91zm-101.17 95.83h36v42.77h-36zm-91.899 1.748l28.978-29.019 25.474 25.438-28.978 29.019zm172.335-3.541l25.474-25.438 28.971 29.012-25.473 25.438z"/><path d="M132.6 159.57c0-35.34 26.83-63 61.07-63h92.7v35.31c-65.49.54-118.6 51-118.6 113.06h36c0-42.5 37.53-77.07 83.66-77.07h33.89c46.13 0 83.66 34.57 83.66 77.07h36c0-62-53.11-112.52-118.61-113.06V60.55h-128.7a95.6 95.6 0 0 0-69 28.93C106.56 108 96.6 132.9 96.6 159.57V453h81.26v-36H132.6z"/></svg>