<?xml version="1.0" encoding="utf-8"?><svg data-name="Layer 1" xmlns="http://www.w3.org/2000/svg" viewBox="0 0 512 512" width="512" height="512"><title>trash-o</title><path d="M350.66 70.31a123.86 123.86 0 0 1-83-31.75L256 28.08l-11.65 10.48a123.85 123.85 0 0 1-83 31.75H93.44l3.07 34.83h64.83A158.74 158.74 0 0 0 256 74a158.75 158.75 0 0 0 94.66 31.17h64.83l3.07-34.83zM128.28 465.13h255.45L412.36 140H99.59zm246.05-290.29l-22.5 255.45H311l7.35-220.62h-34.89l-7.35 220.62h-40.23l-7.35-220.62h-34.85L201 430.29h-40.83l-22.54-255.45z"/></svg>