<?xml version="1.0" encoding="utf-8"?><svg data-name="Layer 1" xmlns="http://www.w3.org/2000/svg" viewBox="0 0 512 512" width="512" height="512"><path d="M156 292.49l-12.75-12.89-12.78 12.89A341.91 341.91 0 0 0 104 323.25c-19.23 25.33-28.57 45.92-28.57 62.94 0 19.41 7.67 36.92 21.61 49.3a70.32 70.32 0 0 0 92.41 0c13.94-12.38 21.61-29.89 21.61-49.3 0-17-9.35-37.61-28.57-62.94A339.25 339.25 0 0 0 156 292.49zM143.25 416.8c-23.34 0-31.81-18.3-31.81-30.61s16.15-35.91 31.78-54.3c3.3 3.86 6.95 8.32 10.6 13.13 19.72 26 21.25 38.08 21.25 41.17 0 22.46-19.07 30.61-31.82 30.61zm200.66-275.47v-45h48.42v-36H259.49v36h48.42v45h-81.63c-55.71 0-101 44.42-101 99h36c0-34.75 29.17-63 65-63h199.26v-36z"/></svg>