<?xml version="1.0" encoding="utf-8"?>
<!-- Generator: Adobe Illustrator 22.0.1, SVG Export Plug-In . SVG Version: 6.00 Build 0)  -->
<svg version="1.1" id="_x30_514e27f-b49e-4375-b88b-673bd851049e"
	 xmlns="http://www.w3.org/2000/svg" xmlns:xlink="http://www.w3.org/1999/xlink" x="0px" y="0px" viewBox="0 0 512 512"
	 style="enable-background:new 0 0 512 512;" xml:space="preserve">
<title>times-circle-o</title>
<path d="M256,39.2c-120.5,0-218.2,97.7-218.2,218.2S135.5,475.7,256,475.7S474.2,378,474.2,257.5S376.5,39.2,256,39.2z M74.1,257.5
	c0-43.6,15.4-83.7,41.1-115l115,115l25.7,25.7l115,115c-31.4,25.7-71.4,41.1-115,41.1C155.7,439.3,74.1,357.7,74.1,257.5z
	 M396.7,372.5l-115-115L256,231.7l-115-115c31.4-25.7,71.4-41.1,115-41.1c100.3,0,181.9,81.6,181.9,181.9
	C437.9,301.1,422.4,341.1,396.7,372.5z"/>
</svg>
