<?xml version="1.0" encoding="utf-8"?>
<!-- Generator: Adobe Illustrator 21.1.0, SVG Export Plug-In . SVG Version: 6.00 Build 0)  -->
<svg version="1.1" id="_x33_fea98d6-a364-4f1a-9d03-8ddf05ec7f00"
	 xmlns="http://www.w3.org/2000/svg" xmlns:xlink="http://www.w3.org/1999/xlink" x="0px" y="0px" viewBox="0 0 512 512"
	 style="enable-background:new 0 0 512 512;" xml:space="preserve">
<title>book</title>
<path d="M429.3,413.1h-95.2c-24.7,0-43.6,4.7-58.4,11.4v-99.8H330V179.5c1.4-0.1,2.7-0.1,4.1-0.1h95.2V413.1z M86.9,413.1V179.4
	h95.2c1.4,0,2.8,0.1,4.2,0.1v192.8c0.1,14.4,3.5,28.6,10,41.4c-4.5-0.4-9.2-0.6-14.1-0.6L86.9,413.1z M221.4,372.4
	c0.3-14.9,7.3-28.9,19.1-37.9V414l-5.2-5.2c-8-8-13.5-21.9-13.9-34.9L221.4,372.4L221.4,372.4z M221.4,133.4
	c0-26.3,21.3-47.6,47.6-47.6h25.9v203.8H269c-17.1,0-33.8,5.4-47.6,15.5V133.4z M334.1,144.2c-1.4,0-2.8,0.1-4.1,0.1V50.6h-61
	c-45.7,0-82.7,37.1-82.7,82.7v11c-1.4,0-2.7-0.1-4.2-0.1H51.8v304.1h130.3c34.4,0,52.5,10.9,66.1,23l8.4,8.4l0.2-0.2l1.4,1.4
	c15.2-15.2,32.6-32.6,76-32.6h130.3v-304L334.1,144.2z"/>
</svg>
