<?xml version="1.0" encoding="utf-8"?>
<!-- Generator: Adobe Illustrator 22.0.1, SVG Export Plug-In . SVG Version: 6.00 Build 0)  -->
<svg version="1.1" id="Layer_1" xmlns="http://www.w3.org/2000/svg" xmlns:xlink="http://www.w3.org/1999/xlink" x="0px" y="0px"
	 viewBox="0 0 512 512" style="enable-background:new 0 0 512 512;" xml:space="preserve">
<g>
	<path d="M401.5,95h-19V37h-40v58h-170V37h-40v58h-23C73.4,95,44,124.4,44,160.5v246.1c0,36.1,29.4,65.5,65.5,65.5h292.1
		c36.1,0,65.5-29.4,65.5-65.5V160.5C467,124.4,437.6,95,401.5,95z M109.5,135h292.1c14,0,25.5,11.4,25.5,25.5v37H84v-37
		C84,146.4,95.4,135,109.5,135z M401.5,432H109.5c-14,0-25.5-11.4-25.5-25.5v-169h343v169C427,420.6,415.6,432,401.5,432z"/>
	<rect x="122.5" y="276.5" width="40" height="40"/>
	<rect x="197.7" y="277" width="40" height="40"/>
	<rect x="272.8" y="277" width="40" height="40"/>
	<rect x="348" y="277" width="40" height="40"/>
	<rect x="122.5" y="353.5" width="40" height="40"/>
	<rect x="197.7" y="354" width="40" height="40"/>
	<rect x="272.8" y="354" width="40" height="40"/>
</g>
</svg>
