<?xml version="1.0" encoding="utf-8"?>
<!-- Generator: Adobe Illustrator 22.0.1, SVG Export Plug-In . SVG Version: 6.00 Build 0)  -->
<svg version="1.1" id="Layer_1" xmlns="http://www.w3.org/2000/svg" xmlns:xlink="http://www.w3.org/1999/xlink" x="0px" y="0px"
	 viewBox="0 0 512 512" style="enable-background:new 0 0 512 512;" xml:space="preserve">
<g>
	<path d="M109.5,470.1c-35,0-63.5-28.5-63.5-63.5V160.5c0-35,28.5-63.5,63.5-63.5h25V39h36v58h174V39h36v58h21
		c35,0,63.5,28.5,63.6,63.5v246.1c0,35-28.5,63.5-63.5,63.5H109.5z M82,406.5c0,15.2,12.3,27.5,27.5,27.5h292
		c15.2,0,27.5-12.3,27.5-27.5v-171H82V406.5z M109.5,133C94.3,133,82,145.3,82,160.5v39h347.1v-39c0-15.2-12.3-27.5-27.5-27.5H109.5
		z"/>
	<rect x="122.5" y="276.5" width="40" height="40"/>
	<rect x="197.7" y="277" width="40" height="40"/>
	<rect x="272.8" y="277" width="40" height="40"/>
	<rect x="348" y="277" width="40" height="40"/>
	<rect x="122.5" y="353.5" width="40" height="40"/>
	<rect x="197.7" y="354" width="40" height="40"/>
	<rect x="272.8" y="354" width="40" height="40"/>
</g>
</svg>
