<svg id="3fe12ba8-7db0-4ffe-8486-a05d0cf9dec4" data-name="Layer 1" xmlns="http://www.w3.org/2000/svg" viewBox="0 0 512 512">
  <title>commenting-o</title>
  <g>
    <path d="M380.71,128.69a51.41,51.41,0,0,1,52,52V305.35c0,30.1-21.85,51.94-52,51.94l-20.76,0a92.07,92.07,0,0,0-52,15.89,92.07,92.07,0,0,0-52-15.89H235.22l-103.93,0c-30.11,0-52-21.84-52-51.94V180.65a51.41,51.41,0,0,1,52-52H380.71m0-31.18H131.29c-46.52,0-83.14,36.62-83.14,83.14V305.35c0,47.1,35.81,83.12,83.14,83.12l103.92,0H256a61.11,61.11,0,0,1,43.41,17.91l8.55,8.53,8.55-8.52a61.12,61.12,0,0,1,43.41-17.91l20.78,0c47.33,0,83.14-36,83.14-83.12V180.65c0-46.52-36.62-83.14-83.14-83.14Z"/>
    <g>
      <rect x="135.45" y="185.84" width="241.1" height="31.18"/>
      <rect x="135.45" y="268.97" width="241.1" height="31.18"/>
    </g>
  </g>
</svg>
