<svg id="59737c54-7387-4b5f-8c3c-7e9ad7914d66" data-name="Layer 1" xmlns="http://www.w3.org/2000/svg" viewBox="0 0 512 512">
  <title>commenting-o</title>
  <g>
    <path d="M380.71,128.69a51.41,51.41,0,0,1,52,52v124.7c0,30.1-21.86,51.95-52,51.95H359.92a92.12,92.12,0,0,0-52,15.89,92.1,92.1,0,0,0-52-15.89H131.29c-30.1,0-52-21.85-52-51.95V180.65a51.41,51.41,0,0,1,52-52H380.71m0-31.18H131.29c-46.52,0-83.13,36.62-83.13,83.14v124.7c0,47.1,35.81,83.12,83.13,83.12l103.93,0H256a61.1,61.1,0,0,1,43.41,17.91l8.55,8.53,8.55-8.52a61.08,61.08,0,0,1,43.41-17.92l20.79,0c47.32,0,83.13-36,83.13-83.12V180.65c0-46.52-36.61-83.14-83.13-83.14Z"/>
    <g>
      <rect x="135.45" y="185.84" width="241.1" height="31.18"/>
      <rect x="135.45" y="268.97" width="241.1" height="31.18"/>
    </g>
  </g>
</svg>
