<svg data-name="Layer 1" xmlns="http://www.w3.org/2000/svg" viewBox="0 0 512 512"><path d="M283.82 344.56c0 16.14-12.51 27.33-27.66 27.33s-28-11.19-28-27.33c0-16.46 12.84-27.32 28-27.32s27.66 10.86 27.66 27.32zm-3-181.07c0 49-8.56 133.66-8.56 133.66H240s-8.56-84.61-8.56-133.66v-23.38h49.39z"/><path d="M256 427.28c-94.45 0-171.29-76.83-171.29-171.28S161.55 84.72 256 84.72 427.28 161.55 427.28 256 350.45 427.28 256 427.28M256 38C135.6 38 38 135.6 38 256s97.6 218 218 218 218-97.6 218-218S376.4 38 256 38"/></svg>