<svg id="Layer_1" data-name="Layer 1" xmlns="http://www.w3.org/2000/svg" viewBox="0 0 512 512"><title>fence</title><path d="M410.18,85l-62,46.23v60.5h-25V131.29L262.1,85l-62,46.23v60.5h-25V131.29L114,85,52,131.22V463.39H175.16V383.5h25v79.89H323.25V383.5h25v79.89H471.33V131.29ZM232.12,147.27,262,125l29.3,22.18v44.52H232.12Zm59.13,76.45V351.5H232.12V223.72ZM143.16,431.39H84V147.27L113.87,125l29.29,22.18v44.52h-41v32h41V351.5h-41v32h41Zm32-79.89V223.72h25V351.5Zm116.09,79.89H232.12V383.5h59.13Zm32-79.89V223.72h25V351.5Zm116.08,79.89H380.21V383.5h39v-32h-39V223.72h39v-32h-39V147.27L410,125l29.29,22.18Z"/></svg>