<svg id="f11a5948-f87e-41ae-8b3c-50b4b0ca51b0" data-name="Layer 1" xmlns="http://www.w3.org/2000/svg" viewBox="0 0 512 512">
  <title>globe</title>
  <path d="M259.3,41.76C138.77,41.76,41.07,139.46,41.07,260S138.77,478.22,259.3,478.22,477.53,380.52,477.53,260,379.83,41.76,259.3,41.76Zm16.37,145.59q32-.53,63.85-3.1a236.36,236.36,0,0,1,11.6,59.38H275.67Zm0-32.76V85.47a243.85,243.85,0,0,1,50.53,67Q301,154.17,275.67,154.58ZM242.93,85.47v69.11q-25.3-.43-50.53-2.17A243.86,243.86,0,0,1,242.93,85.47Zm0,101.88v56.27H167.48a236.44,236.44,0,0,1,11.6-59.38Q210.94,186.83,242.93,187.35ZM134.69,243.62H74.63a184,184,0,0,1,20.58-69.87q25.17,4.24,50.6,7.19A269.4,269.4,0,0,0,134.69,243.62Zm0,32.74A269.63,269.63,0,0,0,145.73,339q-25.4,2.93-50.52,7.18a184,184,0,0,1-20.58-69.87Zm32.82,0h75.45v56.27q-32,.53-63.85,3.1A236.41,236.41,0,0,1,167.48,276.36Zm75.45,89v69.12a243.83,243.83,0,0,1-50.53-67Q217.62,365.8,242.93,365.39Zm32.74,69.12V365.39q25.31.43,50.53,2.17A243.85,243.85,0,0,1,275.67,434.51Zm0-101.88V276.36h75.45a236.42,236.42,0,0,1-11.6,59.38Q307.66,333.15,275.67,332.63Zm108.25-56.27H444a184,184,0,0,1-20.58,69.87Q398.22,342,372.8,339A269.4,269.4,0,0,0,383.92,276.36Zm0-32.74a269.45,269.45,0,0,0-11.16-62.67q25.46-2.94,50.66-7.2A184,184,0,0,1,444,243.62Zm19.8-99.81q-21.25,3.25-42.68,5.52a272.26,272.26,0,0,0-41-64.41A186,186,0,0,1,403.7,143.81ZM198.52,84.93a272.51,272.51,0,0,0-41,64.39q-21.37-2.28-42.57-5.51A186,186,0,0,1,198.52,84.93ZM114.9,376.17q21.19-3.24,42.56-5.51A272.48,272.48,0,0,0,198.28,435,186,186,0,0,1,114.9,376.17ZM320.1,435a272.48,272.48,0,0,0,41-64.38q21.37,2.28,42.56,5.51A186.06,186.06,0,0,1,320.1,435Z"/>
</svg>
