<svg id="1cc6dc58-c90f-4cbf-a286-753e01cc20ef" data-name="Layer 1" xmlns="http://www.w3.org/2000/svg" viewBox="0 0 512 512">
  <title>home</title>
  <g>
    <path d="M419.37,303.25l31.44,31.44,23.1-23.11L256,93.67,38.09,311.58l23.1,23.11,31.44-31.44V465.13H419.37ZM288.68,432.45H223.33V323.78h65.35Zm32.67,0V291.11H190.65V432.45H125.3V270.58L256,139.88l130.7,130.7V432.45Z"/>
    <path d="M392.14,182.1h32.68c0-28.53-14.74-43.26-26.58-55.09-10.25-10.23-17-17-17-32s6.77-21.77,17-32c11.85-11.83,26.59-26.57,26.59-55.12H392.14c0,15-6.76,21.77-17,32C363.29,51.72,348.55,66.45,348.55,95s14.74,43.29,26.6,55.13C385.38,160.36,392.14,167.11,392.14,182.1Z"/>
  </g>
</svg>
