<svg id="8f48a4a8-03a6-4824-8709-972e3a63a152" data-name="Layer 1" xmlns="http://www.w3.org/2000/svg" viewBox="0 0 512 512">
  <title>pencil</title>
  <g>
    <g>
      <rect x="140.25" y="203.72" width="300.12" height="31.57" transform="translate(-70.18 269.58) rotate(-45)"/>
      <rect x="87.63" y="151.1" width="300.12" height="31.57" transform="translate(-48.39 216.95) rotate(-45)"/>
      <polygon points="92.92 364.23 109.63 301.9 155.25 347.52 92.92 364.23"/>
    </g>
    <path d="M419.08,465.29c-32.17,0-48.77-11.72-63.42-22.06-12.9-9.11-23.09-16.3-45.27-16.3s-32.37,7.19-45.27,16.29c-14.65,10.35-31.27,22.07-63.46,22.07s-48.81-11.72-63.47-22.07c-12.9-9.1-23.1-16.29-45.27-16.29V395.35c32.2,0,48.81,11.73,63.47,22.08,12.9,9.1,23.09,16.29,45.27,16.29s32.36-7.19,45.26-16.29c14.66-10.35,31.28-22.08,63.47-22.08s48.82,11.74,63.48,22.08c12.88,9.1,23.07,16.29,45.21,16.29Z"/>
  </g>
</svg>
