<svg id="Layer_1" data-name="Layer 1" xmlns="http://www.w3.org/2000/svg" viewBox="0 0 363.72 512"><title>plug</title><rect x="159.86" y="380.84" width="42" height="74.41"/><path d="M327.33,142.77H262.1v-81h-32v81H131.63v-81h-32v81H34.39v32H67v48.82a111.59,111.59,0,0,0,21.6,65.91,119.83,119.83,0,0,0,43.63,36.86v42.86h97.24v-42.5a113.69,113.69,0,0,0,65.23-103.13V174.77h32.62Zm-64.62,80.82c0,34.94-21.88,66-54.46,77.24l-10.77,3.72v32.67H164.24V305L154,301c-32.91-12.8-55-43.92-55-77.45V174.77h163.7Z"/></svg>