<svg id="Layer_1" data-name="Layer 1" xmlns="http://www.w3.org/2000/svg" viewBox="0 0 335.82 512"><title>pole</title><path d="M246,105.48c-5.72-16.24-20.38-35.58-57.76-35.58-37.17,0-52.21,19.16-58.29,35.23l-1,2.74v35.46h-.06L127,159.22c-2.93,25.28-10.11,43.91-21.36,55.37C95,225.47,80.13,230.44,60.26,229.81l-16-.51-1,32,16,.52c1.45,0,2.88.07,4.3.07,26.92,0,48.76-8.36,65-24.87.14-.14.27-.29.41-.44v216.1h118V108.06Zm-57.76-3.58c19.06,0,24.53,7.1,26.67,11.87v48.42h-54V114.06C163.93,108,170.33,101.9,188.23,101.9ZM160.91,420.66v-229h54v229Z"/></svg>