<svg id="cd0341d7-f60f-474f-9cfa-6ca30fb4bb28" data-name="Layer 1" xmlns="http://www.w3.org/2000/svg" viewBox="0 0 512 512">
  <title>smile-o</title>
  <g>
    <circle cx="195.71" cy="215.81" r="28.87"/>
    <circle cx="345.82" cy="215.81" r="28.87"/>
    <g>
      <path d="M270.76,83c95.5,0,173.2,77.7,173.2,173.2s-77.7,173.2-173.2,173.2-173.2-77.7-173.2-173.2S175.26,83,270.76,83m0-34.64C156,48.38,62.92,141.43,62.92,256.22S156,464.06,270.76,464.06,478.61,371,478.61,256.22,385.55,48.38,270.76,48.38Z"/>
      <path d="M270.76,382.66A125.64,125.64,0,0,1,157,311.53l31.14-15.17a91.84,91.84,0,0,0,165.16,0l31.14,15.17A125.64,125.64,0,0,1,270.76,382.66Z"/>
    </g>
  </g>
</svg>
