<svg id="Layer_1" data-name="Layer 1" xmlns="http://www.w3.org/2000/svg" viewBox="0 0 512 512"><title>street-light</title><rect x="294.37" y="344.75" width="32" height="55.77"/><rect x="203.27" y="329.72" width="58.86" height="32" transform="translate(-176.39 266.21) rotate(-45.06)"/><rect x="379.03" y="316.29" width="32" height="58.86" transform="translate(-128.79 380.07) rotate(-44.94)"/><path d="M321.32,143.85h-.95V72.55H193.67a93.65,93.65,0,0,0-67.59,28.32C108.36,119,98.6,143.43,98.6,169.57V461h95.26V429H130.6V169.57c0-36.46,27.71-65,63.07-65h94.7v39.3h-.94c-64.88,0-117.66,49.82-117.66,111.07v16H243.2A60.61,60.61,0,0,0,264,301.27c13.82,11.08,32.38,17.18,52.26,17.18s38.44-6.1,52.26-17.18a60.61,60.61,0,0,0,20.78-30.35H439v-16C439,193.67,386.2,143.85,321.32,143.85Zm-5.08,142.6c-16.55,0-30.36-6.1-37.67-15.53h75.35C346.6,280.35,332.79,286.45,316.24,286.45Zm75.3-47.53h-188c8-36,42.6-63.07,83.9-63.07h33.89c41.3,0,75.87,27.11,83.9,63.07Z"/></svg>