<?xml version="1.0" encoding="utf-8"?>
<!-- Generator: Adobe Illustrator 22.1.0, SVG Export Plug-In . SVG Version: 6.00 Build 0)  -->
<svg version="1.1" id="_x30_514e27f-b49e-4375-b88b-673bd851049e"
	 xmlns="http://www.w3.org/2000/svg" xmlns:xlink="http://www.w3.org/1999/xlink" x="0px" y="0px" viewBox="0 0 512 512"
	 style="enable-background:new 0 0 512 512;" xml:space="preserve">
<g>
	<path d="M455.7,205.5l-40.7,10.3c17.7,70-11.8,142.4-73.5,180.2c-44.7,27.4-99.3,31.6-147.2,12.2l26.5-29.4L98.2,352.7L136.9,472
		l28.1-31.1c28.7,14.2,59.9,21.2,91,21.2c37.3,0,74.6-10.1,107.6-30.4C441,384.3,478.1,293.5,455.7,205.5z"/>
	<path d="M170.3,116c44.7-27.4,99.3-31.6,147.2-12.2l-26.5,29.4l122.8,26.1L375.1,40L347,71.1C283.8,40,209,43.2,148.4,80.3
		C72.7,126.6,35.3,215.7,55.1,302.2l40.9-9.4C80.2,223.9,110,152.9,170.3,116z"/>
</g>
</svg>
