<svg id="7d05dcec-18ce-4a23-9085-5eafd83604c1" data-name="Layer 1" xmlns="http://www.w3.org/2000/svg" viewBox="0 0 512 512">
  <title>ticket</title>
  <g>
    <path d="M348.85,243.65a18.71,18.71,0,1,0,8.36,25.11A18.69,18.69,0,0,0,348.85,243.65Z"/>
    <path d="M376.65,178.21a157.38,157.38,0,0,0,19.1-74.74L221.07,28.61A147.12,147.12,0,0,1,177.83,133l-62.89,62.89c-26.71,26.71-43.61,66.5-43.61,107.26l78.57,33.6a156.26,156.26,0,0,0-19.37,74.7L305.61,486.3a147.15,147.15,0,0,1,43.23-104.38L411.73,319C438.44,292.32,455,252.53,455,211.77ZM141.41,222.35l62.89-62.89a188,188,0,0,0,15.81-18,18.7,18.7,0,1,0,19.33-30.91A182.47,182.47,0,0,0,250.71,82l105.21,45.09a118.68,118.68,0,0,1-13.49,35.54,18.72,18.72,0,1,0-23.6,28.83l-55.66,55.66a184.06,184.06,0,0,0-46.42,77.45L111.23,279.48C115.76,257.76,126.35,237.4,141.41,222.35ZM401.62,271A18.72,18.72,0,1,0,378,299.8l-55.66,55.66a184.06,184.06,0,0,0-46.42,77.45L170.43,387.78a118.66,118.66,0,0,1,14.06-36.25L246.4,378a147.15,147.15,0,0,1,43.23-104.38l62.89-62.89c.49-.49,1-1,1.47-1.51l61.12,26.19A118.68,118.68,0,0,1,401.62,271Z"/>
    <path d="M272.88,168.82a18.72,18.72,0,1,0-8.34-25.13A18.68,18.68,0,0,0,272.88,168.82Z"/>
  </g>
</svg>
