<svg id="d37b1a85-c99c-4ba5-8d57-16749f9e0b72" data-name="Layer 1" xmlns="http://www.w3.org/2000/svg" viewBox="0 0 512 512">
  <title>times-circle-o</title>
  <g>
    <polygon points="339.43 148.31 256 231.73 172.57 148.31 146.86 174.03 230.28 257.45 146.86 340.88 172.57 366.6 256 283.17 339.43 366.6 365.14 340.88 281.72 257.45 365.14 174.03 339.43 148.31"/>
    <path d="M256,39.22c-120.53,0-218.23,97.71-218.23,218.23S135.47,475.69,256,475.69,474.23,378,474.23,257.45,376.53,39.22,256,39.22Zm0,400.09c-100.28,0-181.86-81.58-181.86-181.86S155.72,75.59,256,75.59s181.86,81.58,181.86,181.86S356.28,439.31,256,439.31Z"/>
  </g>
</svg>
