<svg id="Layer_1" data-name="Layer 1" xmlns="http://www.w3.org/2000/svg" viewBox="0 0 512 512"><title>trash-alt</title><rect x="247.74" y="268.44" width="32" height="106.82"/><rect x="183.05" y="268.44" width="32" height="106.82"/><rect x="312.44" y="268.44" width="32" height="106.82"/><path d="M457.65,203.43A80.84,80.84,0,0,0,377,122.61H342.85a80.68,80.68,0,0,0-158.21,0H150.53a80.85,80.85,0,0,0-80.7,80.82v16h48.53V456.28H409.13V219.43h48.52ZM263.74,89.79a48.76,48.76,0,0,1,46,32.82h-92A48.76,48.76,0,0,1,263.74,89.79ZM377.13,424.28H150.36V219.43H377.13Zm32-236.85H104.52a48.79,48.79,0,0,1,46-32.82H377a48.79,48.79,0,0,1,46,32.82Z"/></svg>