<svg id="b5bdfa5b-561d-4d75-83ab-05ea0e7cca9b" data-name="Layer 1" xmlns="http://www.w3.org/2000/svg" viewBox="0 0 512 512">
  <title>trash-o</title>
  <g>
    <path d="M350.66,70.31a123.86,123.86,0,0,1-83-31.75L256,28.08,244.35,38.56a123.85,123.85,0,0,1-83,31.75H93.44l3.07,34.83h64.83A158.74,158.74,0,0,0,256,74a158.75,158.75,0,0,0,94.66,31.17h64.83l3.07-34.83Z"/>
    <path d="M128.28,465.13H383.73L412.36,140H99.59ZM374.33,174.84l-22.5,255.45H311l7.35-220.62H283.46l-7.35,220.62H235.88l-7.35-220.62H193.68L201,430.29H160.17L137.63,174.84Z"/>
  </g>
</svg>
