<svg id="541f2ccb-93d1-441c-9bcd-00975990f3a3" data-name="Layer 1" xmlns="http://www.w3.org/2000/svg" viewBox="0 0 512 512">
  <title>user-o</title>
  <g>
    <path d="M256,76.76a66.62,66.62,0,1,1-66.62,66.62A66.69,66.69,0,0,1,256,76.76m0-32a98.59,98.59,0,1,0,98.59,98.59A98.59,98.59,0,0,0,256,44.78Z"/>
    <path d="M341.27,300.59a64,64,0,0,1,64,64v64H106.78V364.55a64,64,0,0,1,64-64H341.27m0-32H170.74A95.93,95.93,0,0,0,74.8,364.55v95.92H437.2V364.54a95.93,95.93,0,0,0-95.93-95.93Z"/>
  </g>
</svg>
