<svg id="Layer_1" data-name="Layer 1" xmlns="http://www.w3.org/2000/svg" viewBox="0 0 512 512"><title>water-tap</title><path d="M154.61,313.9l-11.36-11.45L131.89,313.9a341.93,341.93,0,0,0-26.29,30.56c-18.95,25-28.16,45.16-28.16,61.73C77.44,425,84.87,442,98.37,454a68.35,68.35,0,0,0,89.76,0c13.5-12,20.94-29,20.94-47.81,0-16.57-9.21-36.76-28.16-61.73A341.09,341.09,0,0,0,154.61,313.9ZM143.25,438.8c-22.2,0-33.81-16.4-33.81-32.61,0-4.14,2.09-16.54,21.44-42.11,4.29-5.66,8.61-10.88,12.37-15.22,3.76,4.34,8.09,9.56,12.37,15.22,19.36,25.57,21.45,38,21.45,42.11C177.07,422.4,165.45,438.8,143.25,438.8Z"/><path d="M341.91,158.33v-44h66.42v-32H243.49v32h66.42v44H226.28c-57.36,0-104,45.76-104,102v21h42v-21c0-33.1,27.83-60,62-60H446.54v-42Z"/></svg>